<svg width="25" height="25" viewBox="0 0 25 25" fill="none" xmlns="http://www.w3.org/2000/svg">
<g clip-path="url(#clip0)">
<path d="M18.5835 10.0313L20.0524 9.938C20.0549 9.93781 20.0575 9.93762 20.0602 9.93743C21.107 9.84894 22.0465 9.29951 22.6382 8.42959L23.7994 6.72261C24.8101 5.23655 25.2017 3.44166 24.9016 1.66875C24.8427 1.32055 24.6649 0.999684 24.4013 0.765577C24.1376 0.531278 23.7984 0.392916 23.4463 0.376098C21.653 0.2901 19.9221 0.894957 18.5709 2.07849L17.0187 3.43822C16.2278 4.13099 15.7959 5.13144 15.8337 6.18349C15.8339 6.18598 15.8339 6.18865 15.8341 6.19133L15.9178 7.66343C15.9504 8.23733 15.7404 8.80358 15.3427 9.21599L3.21616 21.698C2.89153 22.0372 2.72387 22.5026 2.74428 23.0085C2.76679 23.5653 3.0218 24.1123 3.42654 24.4718C3.79218 24.7965 4.29477 24.9815 4.79717 24.9815C4.85095 24.9815 4.90474 24.9794 4.95834 24.975C5.46207 24.9346 5.90324 24.7122 6.20193 24.3464L17.1133 10.7903C17.4752 10.3443 18.0111 10.0676 18.5835 10.0313ZM16.5308 10.3179L5.62038 23.8728C5.45368 24.0769 5.19733 24.2027 4.89864 24.2266C4.5433 24.2551 4.17899 24.1366 3.92379 23.9099C3.66858 23.6831 3.5076 23.3349 3.4933 22.9781C3.48109 22.6782 3.57474 22.4082 3.75518 22.2198L15.8808 9.73868C16.4244 9.1751 16.7105 8.40321 16.6663 7.62082L16.5825 6.15253C16.5541 5.32905 16.8927 4.54608 17.512 4.00352L19.0642 2.64379C20.2689 1.58868 21.8127 1.04995 23.4107 1.12601C23.5926 1.1348 23.7677 1.20627 23.9041 1.32743C24.0405 1.44841 24.1322 1.61429 24.1627 1.79412C24.4301 3.37478 24.0811 4.97473 23.1801 6.29949L22.0189 8.00666C21.5556 8.68777 20.8203 9.11834 20.0009 9.18886L18.536 9.28174C17.7555 9.33142 17.025 9.70867 16.5308 10.3179Z" fill="black"/>
<path d="M24.3077 21.6032L16.1768 14.1831C16.0239 14.0434 15.787 14.0545 15.6474 14.2077C15.5081 14.361 15.5192 14.5986 15.6721 14.7383L23.8009 22.1567C23.9943 22.3358 24.104 22.5997 24.1099 22.8997C24.117 23.2567 23.9772 23.6139 23.7359 23.8556C23.4948 24.0972 23.1389 24.2377 22.7818 24.2304C22.4824 24.2245 22.219 24.1146 22.0422 23.9229L14.7969 15.9529C14.6574 15.7995 14.4203 15.7886 14.2674 15.9281C14.1144 16.0678 14.1033 16.3053 14.2428 16.4586L21.4898 24.4305C21.8083 24.7756 22.2619 24.9713 22.7671 24.9813C22.7803 24.9815 22.7933 24.9817 22.8064 24.9817C23.3495 24.9817 23.8925 24.7609 24.2658 24.3867C24.6484 24.0034 24.8702 23.4421 24.8591 22.885C24.8492 22.3788 24.6541 21.9243 24.3077 21.6032Z" fill="black"/>
<path d="M4.52192 9.96017C5.1422 10.5327 5.94805 10.8591 6.7911 10.8794C6.79377 10.8796 6.79644 10.8796 6.79892 10.8796L8.27064 10.8842C8.84437 10.8859 9.39578 11.1299 9.78279 11.5525L10.4311 12.2655C10.5051 12.3469 10.6064 12.3882 10.7082 12.3882C10.7983 12.3882 10.8887 12.3559 10.9604 12.2903C11.1135 12.1506 11.1246 11.9131 10.9852 11.7598L10.3359 11.0459C9.8072 10.4683 9.05532 10.1358 8.27312 10.1331L6.80541 10.1285C6.15328 10.1119 5.52977 9.86175 5.04664 9.42354L0.781604 4.3435C0.738117 4.29152 0.741359 4.21622 0.789234 4.16825C0.82204 4.13519 0.860569 4.13041 0.880596 4.13041C0.900623 4.13041 0.939152 4.13519 0.972149 4.16825L4.85438 8.05826C5.23814 8.44277 5.8626 8.44277 6.24636 8.05807L6.7026 7.60113V7.60094L7.51265 6.7893C7.51265 6.7893 7.51285 6.7893 7.51285 6.78911L7.51304 6.78892L7.96908 6.33198C8.35284 5.94747 8.35284 5.32178 7.96908 4.93727L4.08686 1.04746C4.0365 0.997006 4.0365 0.914638 4.08686 0.864186C4.13473 0.816218 4.20988 0.812969 4.26176 0.856541L9.33189 5.1301C9.76943 5.61399 10.0191 6.23891 10.0357 6.89212L10.0401 8.36289C10.0428 9.14643 10.3748 9.89978 10.952 10.4307L11.6467 11.0646C11.7998 11.2043 12.0367 11.1932 12.1761 11.0399C12.3154 10.8865 12.3043 10.6491 12.1513 10.5094L11.4578 9.87646C11.035 9.48775 10.7916 8.93506 10.7897 8.3604L10.7851 6.88581C10.7851 6.88314 10.7851 6.88046 10.7849 6.87778C10.7647 6.03309 10.4389 5.22566 9.86747 4.60417C9.85679 4.59251 9.84535 4.58143 9.83314 4.57111L4.74413 0.281879C4.39242 -0.0147205 3.88201 0.00744801 3.55699 0.333096C3.21424 0.676517 3.21424 1.23513 3.55699 1.57836L7.43922 5.46836C7.53077 5.56009 7.53077 5.70935 7.43922 5.80108L7.24791 5.99257L2.92108 1.65748C2.77479 1.5107 2.53751 1.5107 2.39122 1.65748C2.24493 1.80406 2.24493 2.04179 2.39122 2.18837L6.71805 6.52366L6.43767 6.8044L2.11084 2.4693C1.96455 2.32272 1.72727 2.32272 1.58098 2.4693C1.43449 2.61588 1.43449 2.85362 1.58098 3.0002L5.90762 7.33549L5.7165 7.52717C5.62495 7.6189 5.47598 7.6189 5.38443 7.52717L1.50201 3.63736C1.33607 3.47109 1.11539 3.37936 0.880596 3.37936C0.645801 3.37936 0.42512 3.47109 0.25918 3.63736C-0.0658327 3.963 -0.0877673 4.47441 0.208063 4.827L4.48912 9.92577C4.49923 9.938 4.51029 9.94946 4.52192 9.96017Z" fill="black"/>
</g>
<defs>
<clipPath id="clip0">
<rect width="25" height="25" fill="white"/>
</clipPath>
</defs>
</svg>
