<svg width="28" height="17" viewBox="0 0 28 17" fill="none" xmlns="http://www.w3.org/2000/svg">
<path d="M1.16571 2.33142H26.0342C26.6754 2.33142 27.2 1.80685 27.2 1.16571C27.2 0.52457 26.6754 0 26.0342 0H1.16571C0.52457 0 0 0.52457 0 1.16571C0 1.80685 0.52457 2.33142 1.16571 2.33142Z" fill="#333333"/>
<path d="M1.16573 9.59995H26.0343C26.6754 9.59995 27.2 9.05995 27.2 8.39995C27.2 7.73995 26.6754 7.19995 26.0343 7.19995H1.16573C0.524585 7.19995 1.52588e-05 7.73995 1.52588e-05 8.39995C1.52588e-05 9.05995 0.524585 9.59995 1.16573 9.59995Z" fill="#FFA800"/>
<path d="M1.16573 16.6171H26.0343C26.6754 16.6171 27.2 16.0925 27.2 15.4514C27.2 14.8102 26.6754 14.2857 26.0343 14.2857H1.16573C0.524585 14.2857 1.52588e-05 14.8102 1.52588e-05 15.4514C1.52588e-05 16.0925 0.524585 16.6171 1.16573 16.6171Z" fill="#333333"/>
</svg>
