<svg width="288" height="54" viewBox="0 0 288 54" fill="none" xmlns="http://www.w3.org/2000/svg">
<path d="M13.5216 42.5184C11.1312 42.5184 8.8128 42.2016 6.5664 41.568C4.3488 40.9056 2.5632 40.056 1.2096 39.0192L3.5856 33.7488C4.8816 34.6992 6.4224 35.4624 8.208 36.0384C9.9936 36.6144 11.7792 36.9024 13.5648 36.9024C15.552 36.9024 17.0208 36.6144 17.9712 36.0384C18.9216 35.4336 19.3968 34.6416 19.3968 33.6624C19.3968 32.9424 19.1088 32.352 18.5328 31.8912C17.9856 31.4016 17.2656 31.0128 16.3728 30.7248C15.5088 30.4368 14.328 30.12 12.8304 29.7744C10.5264 29.2272 8.64 28.68 7.1712 28.1328C5.7024 27.5856 4.4352 26.7072 3.3696 25.4976C2.3328 24.288 1.8144 22.6752 1.8144 20.6592C1.8144 18.9024 2.2896 17.3184 3.24 15.9072C4.1904 14.4672 5.616 13.3296 7.5168 12.4944C9.4464 11.6592 11.7936 11.2416 14.5584 11.2416C16.488 11.2416 18.3744 11.472 20.2176 11.9328C22.0608 12.3936 23.6736 13.056 25.056 13.92L22.896 19.2336C20.1024 17.6496 17.3088 16.8576 14.5152 16.8576C12.5568 16.8576 11.1024 17.1744 10.152 17.808C9.2304 18.4416 8.7696 19.2768 8.7696 20.3136C8.7696 21.3504 9.3024 22.128 10.368 22.6464C11.4624 23.136 13.1184 23.6256 15.336 24.1152C17.64 24.6624 19.5264 25.2096 20.9952 25.7568C22.464 26.304 23.7168 27.168 24.7536 28.3488C25.8192 29.5296 26.352 31.128 26.352 33.144C26.352 34.872 25.8624 36.456 24.8832 37.896C23.9328 39.3072 22.4928 40.4304 20.5632 41.2656C18.6336 42.1008 16.2864 42.5184 13.5216 42.5184Z" fill="#FFA800"/>
<path d="M30.6588 18.7584H37.398V42H30.6588V18.7584ZM34.0284 15.5184C32.79 15.5184 31.782 15.1584 31.0044 14.4384C30.2268 13.7184 29.838 12.8256 29.838 11.76C29.838 10.6944 30.2268 9.8016 31.0044 9.0816C31.782 8.3616 32.79 8.0016 34.0284 8.0016C35.2668 8.0016 36.2748 8.3472 37.0524 9.0384C37.83 9.7296 38.2188 10.5936 38.2188 11.6304C38.2188 12.7536 37.83 13.6896 37.0524 14.4384C36.2748 15.1584 35.2668 15.5184 34.0284 15.5184ZM73.4174 18.4128C76.3262 18.4128 78.6302 19.2768 80.3294 21.0048C82.0574 22.704 82.9214 25.2672 82.9214 28.6944V42H76.1822V29.7312C76.1822 27.888 75.7934 26.52 75.0158 25.6272C74.267 24.7056 73.187 24.2448 71.7758 24.2448C70.1918 24.2448 68.939 24.7632 68.0174 25.8C67.0958 26.808 66.635 28.32 66.635 30.336V42H59.8958V29.7312C59.8958 26.0736 58.427 24.2448 55.4894 24.2448C53.9342 24.2448 52.6958 24.7632 51.7742 25.8C50.8526 26.808 50.3918 28.32 50.3918 30.336V42H43.6526V18.7584H50.0894V21.4368C50.9534 20.4576 52.0046 19.7088 53.243 19.1904C54.5102 18.672 55.8926 18.4128 57.3902 18.4128C59.0318 18.4128 60.515 18.744 61.8398 19.4064C63.1646 20.04 64.2302 20.976 65.0366 22.2144C65.987 21.0048 67.1822 20.0688 68.6222 19.4064C70.091 18.744 71.6894 18.4128 73.4174 18.4128ZM102.7 18.4128C104.86 18.4128 106.818 18.9168 108.575 19.9248C110.36 20.904 111.757 22.3008 112.765 24.1152C113.773 25.9008 114.277 27.9888 114.277 30.3792C114.277 32.7696 113.773 34.872 112.765 36.6864C111.757 38.472 110.36 39.8688 108.575 40.8768C106.818 41.856 104.86 42.3456 102.7 42.3456C99.7332 42.3456 97.4004 41.4096 95.7012 39.5376V50.3808H88.962V18.7584H95.3988V21.4368C97.0692 19.4208 99.5028 18.4128 102.7 18.4128ZM101.533 36.816C103.261 36.816 104.672 36.24 105.767 35.088C106.89 33.9072 107.452 32.3376 107.452 30.3792C107.452 28.4208 106.89 26.8656 105.767 25.7136C104.672 24.5328 103.261 23.9424 101.533 23.9424C99.8052 23.9424 98.3796 24.5328 97.2564 25.7136C96.162 26.8656 95.6148 28.4208 95.6148 30.3792C95.6148 32.3376 96.162 33.9072 97.2564 35.088C98.3796 36.24 99.8052 36.816 101.533 36.816ZM118.789 9.9456H125.528V42H118.789V9.9456ZM154.549 30.4656C154.549 30.552 154.505 31.1568 154.419 32.28H136.837C137.153 33.72 137.902 34.8576 139.083 35.6928C140.264 36.528 141.733 36.9456 143.489 36.9456C144.699 36.9456 145.765 36.7728 146.686 36.4272C147.637 36.0528 148.515 35.4768 149.321 34.6992L152.907 38.5872C150.718 41.0928 147.521 42.3456 143.317 42.3456C140.696 42.3456 138.377 41.8416 136.361 40.8336C134.345 39.7968 132.79 38.3712 131.696 36.5568C130.601 34.7424 130.054 32.6832 130.054 30.3792C130.054 28.104 130.587 26.0592 131.653 24.2448C132.747 22.4016 134.23 20.976 136.102 19.968C138.003 18.9312 140.12 18.4128 142.453 18.4128C144.728 18.4128 146.787 18.9024 148.63 19.8816C150.473 20.8608 151.913 22.272 152.95 24.1152C154.016 25.9296 154.549 28.0464 154.549 30.4656ZM142.496 23.5104C140.969 23.5104 139.688 23.9424 138.651 24.8064C137.614 25.6704 136.981 26.8512 136.75 28.3488H148.198C147.968 26.88 147.334 25.7136 146.297 24.8496C145.261 23.9568 143.993 23.5104 142.496 23.5104Z" fill="black"/>
<path d="M173.03 42.5184C169.891 42.5184 167.054 41.8416 164.52 40.488C162.014 39.1344 160.042 37.2768 158.602 34.9152C157.19 32.5248 156.485 29.8464 156.485 26.88C156.485 23.9136 157.19 21.2496 158.602 18.888C160.042 16.4976 162.014 14.6256 164.52 13.272C167.054 11.9184 169.891 11.2416 173.03 11.2416C176.17 11.2416 178.992 11.9184 181.498 13.272C184.003 14.6256 185.976 16.4976 187.416 18.888C188.856 21.2496 189.576 23.9136 189.576 26.88C189.576 29.8464 188.856 32.5248 187.416 34.9152C185.976 37.2768 184.003 39.1344 181.498 40.488C178.992 41.8416 176.17 42.5184 173.03 42.5184ZM173.03 36.5568C174.816 36.5568 176.429 36.1536 177.869 35.3472C179.309 34.512 180.432 33.36 181.238 31.8912C182.074 30.4224 182.491 28.752 182.491 26.88C182.491 25.008 182.074 23.3376 181.238 21.8688C180.432 20.4 179.309 19.2624 177.869 18.456C176.429 17.6208 174.816 17.2032 173.03 17.2032C171.245 17.2032 169.632 17.6208 168.192 18.456C166.752 19.2624 165.614 20.4 164.779 21.8688C163.973 23.3376 163.57 25.008 163.57 26.88C163.57 28.752 163.973 30.4224 164.779 31.8912C165.614 33.36 166.752 34.512 168.192 35.3472C169.632 36.1536 171.245 36.5568 173.03 36.5568Z" fill="#FFA800"/>
<path d="M200.797 21.8256C201.604 20.7024 202.684 19.8528 204.037 19.2768C205.42 18.7008 207.004 18.4128 208.789 18.4128V24.6336C208.04 24.576 207.536 24.5472 207.277 24.5472C205.348 24.5472 203.836 25.0944 202.741 26.1888C201.647 27.2544 201.1 28.8672 201.1 31.0272V42H194.36V18.7584H200.797V21.8256ZM236.259 9.9456V42H229.822V39.3216C228.152 41.3376 225.733 42.3456 222.565 42.3456C220.376 42.3456 218.389 41.856 216.603 40.8768C214.846 39.8976 213.464 38.5008 212.456 36.6864C211.448 34.872 210.944 32.7696 210.944 30.3792C210.944 27.9888 211.448 25.8864 212.456 24.072C213.464 22.2576 214.846 20.8608 216.603 19.8816C218.389 18.9024 220.376 18.4128 222.565 18.4128C225.531 18.4128 227.849 19.3488 229.52 21.2208V9.9456H236.259ZM223.731 36.816C225.43 36.816 226.841 36.24 227.965 35.088C229.088 33.9072 229.649 32.3376 229.649 30.3792C229.649 28.4208 229.088 26.8656 227.965 25.7136C226.841 24.5328 225.43 23.9424 223.731 23.9424C222.003 23.9424 220.577 24.5328 219.454 25.7136C218.331 26.8656 217.769 28.4208 217.769 30.3792C217.769 32.3376 218.331 33.9072 219.454 35.088C220.577 36.24 222.003 36.816 223.731 36.816ZM265.263 30.4656C265.263 30.552 265.22 31.1568 265.133 32.28H247.551C247.868 33.72 248.616 34.8576 249.797 35.6928C250.978 36.528 252.447 36.9456 254.204 36.9456C255.413 36.9456 256.479 36.7728 257.4 36.4272C258.351 36.0528 259.229 35.4768 260.036 34.6992L263.621 38.5872C261.432 41.0928 258.236 42.3456 254.031 42.3456C251.41 42.3456 249.092 41.8416 247.076 40.8336C245.06 39.7968 243.504 38.3712 242.41 36.5568C241.316 34.7424 240.768 32.6832 240.768 30.3792C240.768 28.104 241.301 26.0592 242.367 24.2448C243.461 22.4016 244.944 20.976 246.816 19.968C248.717 18.9312 250.834 18.4128 253.167 18.4128C255.442 18.4128 257.501 18.9024 259.344 19.8816C261.188 20.8608 262.628 22.272 263.664 24.1152C264.73 25.9296 265.263 28.0464 265.263 30.4656ZM253.21 23.5104C251.684 23.5104 250.402 23.9424 249.365 24.8064C248.328 25.6704 247.695 26.8512 247.464 28.3488H258.912C258.682 26.88 258.048 25.7136 257.012 24.8496C255.975 23.9568 254.708 23.5104 253.21 23.5104ZM276.186 21.8256C276.993 20.7024 278.073 19.8528 279.426 19.2768C280.809 18.7008 282.393 18.4128 284.178 18.4128V24.6336C283.429 24.576 282.925 24.5472 282.666 24.5472C280.737 24.5472 279.225 25.0944 278.13 26.1888C277.036 27.2544 276.489 28.8672 276.489 31.0272V42H269.749V18.7584H276.186V21.8256Z" fill="black"/>
</svg>
