<svg width="20" height="20" viewBox="0 0 20 20" fill="none" xmlns="http://www.w3.org/2000/svg">
<circle cx="10" cy="10" r="10" fill="#FFA800"/>
<path d="M15.5312 9.53125H10.4688V4.46875C10.4688 4.20986 10.2589 4 10 4C9.74111 4 9.53125 4.20986 9.53125 4.46875V9.53125H4.46875C4.20986 9.53125 4 9.74111 4 10C4 10.2589 4.20986 10.4688 4.46875 10.4688H9.53125V15.5312C9.53125 15.7901 9.74111 16 10 16C10.2589 16 10.4688 15.7901 10.4688 15.5312V10.4688H15.5312C15.7901 10.4688 16 10.2589 16 10C16 9.74111 15.7901 9.53125 15.5312 9.53125Z" fill="white"/>
</svg>
