<svg width="15" height="15" viewBox="0 0 15 15" fill="none" xmlns="http://www.w3.org/2000/svg">
<g opacity="0.5">
<g clip-path="url(#clip0)">
<path d="M7.4707 -0.0292969C3.32851 -0.0292969 -0.0292969 3.32851 -0.0292969 7.4707C-0.0292969 11.6129 3.32851 14.9707 7.4707 14.9707C11.6129 14.9707 14.9707 11.6129 14.9707 7.4707C14.9658 3.33057 11.6108 -0.0243759 7.4707 -0.0292969ZM7.4707 14.0332C3.84636 14.0332 0.908203 11.095 0.908203 7.4707C0.908203 3.84636 3.84636 0.908203 7.4707 0.908203C11.095 0.908203 14.0332 3.84636 14.0332 7.4707C14.0293 11.0934 11.0934 14.0293 7.4707 14.0332Z" fill="black"/>
<path d="M11.1168 3.82452C10.9337 3.64153 10.6369 3.64153 10.4539 3.82452L7.47081 6.80765L4.48768 3.82452C4.30778 3.63833 4.01104 3.63318 3.82484 3.81308C3.63865 3.99286 3.6335 4.28961 3.8134 4.4758C3.81717 4.4797 3.82095 4.48359 3.82484 4.48736L6.80797 7.47049L3.82484 10.4536C3.63865 10.6334 3.6335 10.9302 3.8134 11.1165C3.99318 11.3027 4.28993 11.3078 4.47612 11.1279C4.48002 11.1241 4.48391 11.1204 4.48768 11.1165L7.47081 8.13334L10.4539 11.1165C10.6401 11.2963 10.9369 11.2911 11.1167 11.1049C11.2921 10.9233 11.2921 10.6352 11.1167 10.4536L8.13366 7.47049L11.1168 4.48736C11.2998 4.30437 11.2998 4.00763 11.1168 3.82452Z" fill="black"/>
</g>
</g>
<defs>
<clipPath id="clip0">
<rect width="15" height="15" fill="white"/>
</clipPath>
</defs>
</svg>
